<mxfile host="app.diagrams.net" modified="2022-05-11T18:28:56.782Z" agent="5.0 (Windows NT 10.0; Win64; x64) AppleWebKit/537.36 (KHTML, like Gecko) Chrome/101.0.4951.54 Safari/537.36" etag="keoFj-DreN91QeNM5rR4" version="18.0.3" type="github">
  <diagram id="TWgrvgZmDpVZ8MN6e38I" name="Page-1">
    <mxGraphModel dx="1038" dy="521" grid="1" gridSize="10" guides="1" tooltips="1" connect="1" arrows="1" fold="1" page="1" pageScale="1" pageWidth="850" pageHeight="1100" math="0" shadow="0">
      <root>
        <mxCell id="0" />
        <mxCell id="1" parent="0" />
        <mxCell id="5A9qzg36vjfR5QKj_9I5-15" style="edgeStyle=orthogonalEdgeStyle;rounded=0;orthogonalLoop=1;jettySize=auto;html=1;exitX=0.5;exitY=1;exitDx=0;exitDy=0;entryX=0.5;entryY=0;entryDx=0;entryDy=0;fontFamily=Times New Roman;fontStyle=1" parent="1" source="5A9qzg36vjfR5QKj_9I5-1" target="5A9qzg36vjfR5QKj_9I5-2" edge="1">
          <mxGeometry relative="1" as="geometry" />
        </mxCell>
        <mxCell id="5A9qzg36vjfR5QKj_9I5-1" value="" style="whiteSpace=wrap;html=1;aspect=fixed;fontFamily=Times New Roman;fontStyle=1" parent="1" vertex="1">
          <mxGeometry x="360" y="10" width="80" height="80" as="geometry" />
        </mxCell>
        <mxCell id="5A9qzg36vjfR5QKj_9I5-16" style="edgeStyle=orthogonalEdgeStyle;rounded=0;orthogonalLoop=1;jettySize=auto;html=1;entryX=0.5;entryY=0;entryDx=0;entryDy=0;fontFamily=Times New Roman;fontStyle=1" parent="1" source="5A9qzg36vjfR5QKj_9I5-2" target="5A9qzg36vjfR5QKj_9I5-3" edge="1">
          <mxGeometry relative="1" as="geometry" />
        </mxCell>
        <mxCell id="5A9qzg36vjfR5QKj_9I5-2" value="" style="shape=parallelogram;perimeter=parallelogramPerimeter;whiteSpace=wrap;html=1;fixedSize=1;fontFamily=Times New Roman;fontStyle=1" parent="1" vertex="1">
          <mxGeometry x="340" y="140" width="120" height="60" as="geometry" />
        </mxCell>
        <mxCell id="5A9qzg36vjfR5QKj_9I5-17" style="edgeStyle=orthogonalEdgeStyle;rounded=0;orthogonalLoop=1;jettySize=auto;html=1;exitX=0.5;exitY=1;exitDx=0;exitDy=0;entryX=0.5;entryY=0;entryDx=0;entryDy=0;fontFamily=Times New Roman;fontStyle=1" parent="1" source="5A9qzg36vjfR5QKj_9I5-3" target="5A9qzg36vjfR5QKj_9I5-4" edge="1">
          <mxGeometry relative="1" as="geometry" />
        </mxCell>
        <mxCell id="5A9qzg36vjfR5QKj_9I5-3" value="" style="rounded=1;whiteSpace=wrap;html=1;fontFamily=Times New Roman;fontStyle=1" parent="1" vertex="1">
          <mxGeometry x="340" y="260" width="120" height="60" as="geometry" />
        </mxCell>
        <mxCell id="5A9qzg36vjfR5QKj_9I5-18" style="edgeStyle=orthogonalEdgeStyle;rounded=0;orthogonalLoop=1;jettySize=auto;html=1;exitX=0.5;exitY=1;exitDx=0;exitDy=0;entryX=0.5;entryY=0;entryDx=0;entryDy=0;fontFamily=Times New Roman;fontStyle=1" parent="1" source="5A9qzg36vjfR5QKj_9I5-4" target="5A9qzg36vjfR5QKj_9I5-5" edge="1">
          <mxGeometry relative="1" as="geometry">
            <mxPoint x="400" y="480" as="targetPoint" />
          </mxGeometry>
        </mxCell>
        <mxCell id="5A9qzg36vjfR5QKj_9I5-4" value="" style="rounded=1;whiteSpace=wrap;html=1;fontFamily=Times New Roman;fontStyle=1" parent="1" vertex="1">
          <mxGeometry x="340" y="370" width="120" height="60" as="geometry" />
        </mxCell>
        <mxCell id="5A9qzg36vjfR5QKj_9I5-22" style="edgeStyle=orthogonalEdgeStyle;rounded=0;orthogonalLoop=1;jettySize=auto;html=1;exitX=0.5;exitY=1;exitDx=0;exitDy=0;fontFamily=Times New Roman;fontStyle=1" parent="1" source="5A9qzg36vjfR5QKj_9I5-5" edge="1">
          <mxGeometry relative="1" as="geometry">
            <mxPoint x="400" y="600" as="targetPoint" />
          </mxGeometry>
        </mxCell>
        <mxCell id="5A9qzg36vjfR5QKj_9I5-5" value="" style="rhombus;whiteSpace=wrap;html=1;fontFamily=Times New Roman;fontStyle=1" parent="1" vertex="1">
          <mxGeometry x="360" y="490" width="80" height="80" as="geometry" />
        </mxCell>
        <mxCell id="5A9qzg36vjfR5QKj_9I5-33" style="edgeStyle=orthogonalEdgeStyle;rounded=0;orthogonalLoop=1;jettySize=auto;html=1;exitX=0.55;exitY=0.95;exitDx=0;exitDy=0;exitPerimeter=0;fontFamily=Times New Roman;fontStyle=1" parent="1" source="5A9qzg36vjfR5QKj_9I5-6" edge="1">
          <mxGeometry relative="1" as="geometry">
            <mxPoint x="116" y="760" as="targetPoint" />
          </mxGeometry>
        </mxCell>
        <mxCell id="5A9qzg36vjfR5QKj_9I5-6" value="" style="ellipse;shape=cloud;whiteSpace=wrap;html=1;fontFamily=Times New Roman;fontStyle=1" parent="1" vertex="1">
          <mxGeometry x="50" y="610" width="120" height="80" as="geometry" />
        </mxCell>
        <mxCell id="5A9qzg36vjfR5QKj_9I5-32" style="edgeStyle=orthogonalEdgeStyle;rounded=0;orthogonalLoop=1;jettySize=auto;html=1;exitX=0.55;exitY=0.95;exitDx=0;exitDy=0;exitPerimeter=0;fontFamily=Times New Roman;fontStyle=1" parent="1" source="5A9qzg36vjfR5QKj_9I5-7" edge="1">
          <mxGeometry relative="1" as="geometry">
            <mxPoint x="276" y="760" as="targetPoint" />
          </mxGeometry>
        </mxCell>
        <mxCell id="5A9qzg36vjfR5QKj_9I5-7" value="" style="ellipse;shape=cloud;whiteSpace=wrap;html=1;fontFamily=Times New Roman;fontStyle=1" parent="1" vertex="1">
          <mxGeometry x="210" y="610" width="120" height="80" as="geometry" />
        </mxCell>
        <mxCell id="5A9qzg36vjfR5QKj_9I5-34" style="edgeStyle=orthogonalEdgeStyle;rounded=0;orthogonalLoop=1;jettySize=auto;html=1;exitX=0.55;exitY=0.95;exitDx=0;exitDy=0;exitPerimeter=0;fontFamily=Times New Roman;fontStyle=1" parent="1" source="5A9qzg36vjfR5QKj_9I5-8" edge="1">
          <mxGeometry relative="1" as="geometry">
            <mxPoint x="596" y="760" as="targetPoint" />
          </mxGeometry>
        </mxCell>
        <mxCell id="5A9qzg36vjfR5QKj_9I5-8" value="" style="ellipse;shape=cloud;whiteSpace=wrap;html=1;fontFamily=Times New Roman;fontStyle=1" parent="1" vertex="1">
          <mxGeometry x="530" y="610" width="120" height="80" as="geometry" />
        </mxCell>
        <mxCell id="5A9qzg36vjfR5QKj_9I5-35" style="edgeStyle=orthogonalEdgeStyle;rounded=0;orthogonalLoop=1;jettySize=auto;html=1;exitX=0.55;exitY=0.95;exitDx=0;exitDy=0;exitPerimeter=0;fontFamily=Times New Roman;fontStyle=1" parent="1" source="5A9qzg36vjfR5QKj_9I5-9" edge="1">
          <mxGeometry relative="1" as="geometry">
            <mxPoint x="786" y="760" as="targetPoint" />
          </mxGeometry>
        </mxCell>
        <mxCell id="5A9qzg36vjfR5QKj_9I5-9" value="" style="ellipse;shape=cloud;whiteSpace=wrap;html=1;" parent="1" vertex="1">
          <mxGeometry x="720" y="610" width="120" height="80" as="geometry" />
        </mxCell>
        <mxCell id="5A9qzg36vjfR5QKj_9I5-11" value="" style="rounded=0;whiteSpace=wrap;html=1;fontFamily=Times New Roman;fontStyle=1" parent="1" vertex="1">
          <mxGeometry x="50" y="770" width="120" height="60" as="geometry" />
        </mxCell>
        <mxCell id="5A9qzg36vjfR5QKj_9I5-12" value="" style="rounded=0;whiteSpace=wrap;html=1;fontFamily=Times New Roman;fontStyle=1" parent="1" vertex="1">
          <mxGeometry x="210" y="770" width="120" height="60" as="geometry" />
        </mxCell>
        <mxCell id="5A9qzg36vjfR5QKj_9I5-13" value="" style="rounded=0;whiteSpace=wrap;html=1;fontFamily=Times New Roman;fontStyle=1" parent="1" vertex="1">
          <mxGeometry x="530" y="770" width="120" height="60" as="geometry" />
        </mxCell>
        <mxCell id="5A9qzg36vjfR5QKj_9I5-14" value="" style="rounded=0;whiteSpace=wrap;html=1;" parent="1" vertex="1">
          <mxGeometry x="720" y="770" width="120" height="60" as="geometry" />
        </mxCell>
        <mxCell id="5A9qzg36vjfR5QKj_9I5-23" value="" style="endArrow=none;html=1;rounded=0;fontFamily=Times New Roman;fontStyle=1" parent="1" edge="1">
          <mxGeometry width="50" height="50" relative="1" as="geometry">
            <mxPoint x="120" y="600" as="sourcePoint" />
            <mxPoint x="790" y="600" as="targetPoint" />
          </mxGeometry>
        </mxCell>
        <mxCell id="5A9qzg36vjfR5QKj_9I5-27" value="" style="endArrow=classic;html=1;rounded=0;entryX=0.583;entryY=0.125;entryDx=0;entryDy=0;entryPerimeter=0;fontFamily=Times New Roman;fontStyle=1" parent="1" target="5A9qzg36vjfR5QKj_9I5-6" edge="1">
          <mxGeometry width="50" height="50" relative="1" as="geometry">
            <mxPoint x="120" y="600" as="sourcePoint" />
            <mxPoint x="135" y="560" as="targetPoint" />
          </mxGeometry>
        </mxCell>
        <mxCell id="5A9qzg36vjfR5QKj_9I5-28" value="" style="endArrow=classic;html=1;rounded=0;fontFamily=Times New Roman;fontStyle=1" parent="1" edge="1">
          <mxGeometry width="50" height="50" relative="1" as="geometry">
            <mxPoint x="280" y="600" as="sourcePoint" />
            <mxPoint x="280" y="620" as="targetPoint" />
          </mxGeometry>
        </mxCell>
        <mxCell id="5A9qzg36vjfR5QKj_9I5-29" value="" style="endArrow=classic;html=1;rounded=0;entryX=0.583;entryY=0.125;entryDx=0;entryDy=0;entryPerimeter=0;fontFamily=Times New Roman;fontStyle=1" parent="1" target="5A9qzg36vjfR5QKj_9I5-9" edge="1">
          <mxGeometry width="50" height="50" relative="1" as="geometry">
            <mxPoint x="790" y="600" as="sourcePoint" />
            <mxPoint x="840" y="570" as="targetPoint" />
          </mxGeometry>
        </mxCell>
        <mxCell id="5A9qzg36vjfR5QKj_9I5-30" value="" style="endArrow=classic;html=1;rounded=0;entryX=0.553;entryY=0.108;entryDx=0;entryDy=0;entryPerimeter=0;fontFamily=Times New Roman;fontStyle=1" parent="1" target="5A9qzg36vjfR5QKj_9I5-8" edge="1">
          <mxGeometry width="50" height="50" relative="1" as="geometry">
            <mxPoint x="600" y="600" as="sourcePoint" />
            <mxPoint x="630" y="580" as="targetPoint" />
          </mxGeometry>
        </mxCell>
        <mxCell id="5A9qzg36vjfR5QKj_9I5-36" value="START" style="text;html=1;strokeColor=none;fillColor=none;align=center;verticalAlign=middle;whiteSpace=wrap;rounded=0;fontFamily=Times New Roman;fontStyle=1" parent="1" vertex="1">
          <mxGeometry x="370" y="35" width="60" height="30" as="geometry" />
        </mxCell>
        <mxCell id="5A9qzg36vjfR5QKj_9I5-37" value="USER BUTTON" style="text;html=1;strokeColor=none;fillColor=none;align=center;verticalAlign=middle;whiteSpace=wrap;rounded=0;fontFamily=Times New Roman;fontStyle=1" parent="1" vertex="1">
          <mxGeometry x="370" y="160" width="60" height="30" as="geometry" />
        </mxCell>
        <mxCell id="5A9qzg36vjfR5QKj_9I5-38" value="COUNT" style="text;html=1;strokeColor=none;fillColor=none;align=center;verticalAlign=middle;whiteSpace=wrap;rounded=0;fontFamily=Times New Roman;fontStyle=1" parent="1" vertex="1">
          <mxGeometry x="370" y="275" width="60" height="30" as="geometry" />
        </mxCell>
        <mxCell id="5A9qzg36vjfR5QKj_9I5-39" value="ENCRYPTION" style="text;html=1;strokeColor=none;fillColor=none;align=center;verticalAlign=middle;whiteSpace=wrap;rounded=0;fontFamily=Times New Roman;fontStyle=1" parent="1" vertex="1">
          <mxGeometry x="370" y="385" width="60" height="30" as="geometry" />
        </mxCell>
        <mxCell id="5A9qzg36vjfR5QKj_9I5-40" value="CONDITION" style="text;html=1;strokeColor=none;fillColor=none;align=center;verticalAlign=middle;whiteSpace=wrap;rounded=0;fontFamily=Times New Roman;fontStyle=1" parent="1" vertex="1">
          <mxGeometry x="370" y="515" width="60" height="30" as="geometry" />
        </mxCell>
        <mxCell id="5A9qzg36vjfR5QKj_9I5-41" value="Button pressed for 2 sec" style="text;html=1;strokeColor=none;fillColor=none;align=center;verticalAlign=middle;whiteSpace=wrap;rounded=0;fontFamily=Times New Roman;fontStyle=1" parent="1" vertex="1">
          <mxGeometry x="80" y="635" width="60" height="30" as="geometry" />
        </mxCell>
        <mxCell id="5A9qzg36vjfR5QKj_9I5-42" value="Button pressed for 2 sec again" style="text;html=1;strokeColor=none;fillColor=none;align=center;verticalAlign=middle;whiteSpace=wrap;rounded=0;fontFamily=Times New Roman;fontStyle=1" parent="1" vertex="1">
          <mxGeometry x="240" y="635" width="60" height="30" as="geometry" />
        </mxCell>
        <mxCell id="5A9qzg36vjfR5QKj_9I5-43" value="Button pressed one time" style="text;html=1;strokeColor=none;fillColor=none;align=center;verticalAlign=middle;whiteSpace=wrap;rounded=0;fontFamily=Times New Roman;fontStyle=1" parent="1" vertex="1">
          <mxGeometry x="560" y="635" width="60" height="30" as="geometry" />
        </mxCell>
        <mxCell id="5A9qzg36vjfR5QKj_9I5-44" value="Button pressed two time" style="text;html=1;strokeColor=none;fillColor=none;align=center;verticalAlign=middle;whiteSpace=wrap;rounded=0;fontFamily=Times New Roman;fontStyle=1" parent="1" vertex="1">
          <mxGeometry x="750" y="635" width="60" height="30" as="geometry" />
        </mxCell>
        <mxCell id="5A9qzg36vjfR5QKj_9I5-45" value="CAR&amp;nbsp; in IGNITION MODE" style="text;html=1;strokeColor=none;fillColor=none;align=center;verticalAlign=middle;whiteSpace=wrap;rounded=0;fontFamily=Times New Roman;fontStyle=1" parent="1" vertex="1">
          <mxGeometry x="80" y="785" width="60" height="30" as="geometry" />
        </mxCell>
        <mxCell id="5A9qzg36vjfR5QKj_9I5-46" value="CAR in&lt;br&gt;ACC MODE" style="text;html=1;strokeColor=none;fillColor=none;align=center;verticalAlign=middle;whiteSpace=wrap;rounded=0;fontFamily=Times New Roman;fontStyle=1" parent="1" vertex="1">
          <mxGeometry x="240" y="785" width="60" height="30" as="geometry" />
        </mxCell>
        <mxCell id="5A9qzg36vjfR5QKj_9I5-47" value="Wiper system on" style="text;html=1;strokeColor=none;fillColor=none;align=center;verticalAlign=middle;whiteSpace=wrap;rounded=0;fontFamily=Times New Roman;fontStyle=1" parent="1" vertex="1">
          <mxGeometry x="560" y="785" width="60" height="30" as="geometry" />
        </mxCell>
        <mxCell id="5A9qzg36vjfR5QKj_9I5-49" value="Wiper system off" style="text;html=1;strokeColor=none;fillColor=none;align=center;verticalAlign=middle;whiteSpace=wrap;rounded=0;fontFamily=Times New Roman;fontStyle=1" parent="1" vertex="1">
          <mxGeometry x="750" y="785" width="60" height="30" as="geometry" />
        </mxCell>
      </root>
    </mxGraphModel>
  </diagram>
</mxfile>
